<mxfile host="app.diagrams.net" modified="2024-04-17T06:12:34.071Z" agent="Mozilla/5.0 (Macintosh; Intel Mac OS X 10_15_7) AppleWebKit/537.36 (KHTML, like Gecko) Chrome/124.0.0.0 Safari/537.36" etag="TEOpaohC1LsscXVAEy_l" version="24.2.2" type="github">
  <diagram name="Page-1" id="KBMxZEWK2XRapFiCriQE">
    <mxGraphModel dx="281" dy="145" grid="1" gridSize="10" guides="1" tooltips="1" connect="1" arrows="1" fold="1" page="1" pageScale="1" pageWidth="823" pageHeight="365" math="0" shadow="0">
      <root>
        <mxCell id="0" />
        <mxCell id="1" parent="0" />
        <mxCell id="R3GazH2n3Gu1cFq4PYQI-12" value="" style="group;rotation=-15;" vertex="1" connectable="0" parent="1">
          <mxGeometry x="430" y="130" width="70" height="98" as="geometry" />
        </mxCell>
        <mxCell id="R3GazH2n3Gu1cFq4PYQI-1" value="" style="rounded=0;whiteSpace=wrap;html=1;rotation=-15;strokeWidth=3;" vertex="1" parent="R3GazH2n3Gu1cFq4PYQI-12">
          <mxGeometry x="21" y="25" width="50" height="50" as="geometry" />
        </mxCell>
        <mxCell id="R3GazH2n3Gu1cFq4PYQI-4" value="" style="endArrow=none;html=1;rounded=0;strokeWidth=3;" edge="1" parent="R3GazH2n3Gu1cFq4PYQI-12">
          <mxGeometry width="50" height="50" relative="1" as="geometry">
            <mxPoint x="21" y="95" as="sourcePoint" />
            <mxPoint x="1" y="18" as="targetPoint" />
          </mxGeometry>
        </mxCell>
        <mxCell id="R3GazH2n3Gu1cFq4PYQI-5" value="" style="endArrow=none;html=1;rounded=0;strokeWidth=3;" edge="1" parent="R3GazH2n3Gu1cFq4PYQI-12" source="R3GazH2n3Gu1cFq4PYQI-10">
          <mxGeometry width="50" height="50" relative="1" as="geometry">
            <mxPoint x="21" y="94" as="sourcePoint" />
            <mxPoint x="70" y="81" as="targetPoint" />
          </mxGeometry>
        </mxCell>
        <mxCell id="R3GazH2n3Gu1cFq4PYQI-6" value="" style="endArrow=none;html=1;rounded=0;strokeWidth=3;" edge="1" parent="R3GazH2n3Gu1cFq4PYQI-12">
          <mxGeometry width="50" height="50" relative="1" as="geometry">
            <mxPoint x="-11" y="11" as="sourcePoint" />
            <mxPoint x="1" y="18" as="targetPoint" />
            <Array as="points">
              <mxPoint x="1" y="18" />
            </Array>
          </mxGeometry>
        </mxCell>
        <mxCell id="R3GazH2n3Gu1cFq4PYQI-8" value="" style="endArrow=none;html=1;rounded=0;exitX=0;exitY=0;exitDx=0;exitDy=0;strokeWidth=3;" edge="1" parent="R3GazH2n3Gu1cFq4PYQI-12" source="R3GazH2n3Gu1cFq4PYQI-1">
          <mxGeometry width="50" height="50" relative="1" as="geometry">
            <mxPoint x="36" y="71" as="sourcePoint" />
            <mxPoint x="35" y="9" as="targetPoint" />
          </mxGeometry>
        </mxCell>
        <mxCell id="R3GazH2n3Gu1cFq4PYQI-9" value="" style="endArrow=none;html=1;rounded=0;exitX=1;exitY=0;exitDx=0;exitDy=0;strokeWidth=3;" edge="1" parent="R3GazH2n3Gu1cFq4PYQI-12" source="R3GazH2n3Gu1cFq4PYQI-1">
          <mxGeometry width="50" height="50" relative="1" as="geometry">
            <mxPoint x="36" y="71" as="sourcePoint" />
            <mxPoint x="35" y="9" as="targetPoint" />
          </mxGeometry>
        </mxCell>
        <mxCell id="R3GazH2n3Gu1cFq4PYQI-11" value="" style="endArrow=none;html=1;rounded=0;strokeWidth=3;" edge="1" parent="R3GazH2n3Gu1cFq4PYQI-12" target="R3GazH2n3Gu1cFq4PYQI-10">
          <mxGeometry width="50" height="50" relative="1" as="geometry">
            <mxPoint x="21" y="94" as="sourcePoint" />
            <mxPoint x="70" y="81" as="targetPoint" />
          </mxGeometry>
        </mxCell>
        <mxCell id="R3GazH2n3Gu1cFq4PYQI-10" value="" style="ellipse;whiteSpace=wrap;html=1;aspect=fixed;strokeWidth=3;rotation=-15;" vertex="1" parent="R3GazH2n3Gu1cFq4PYQI-12">
          <mxGeometry x="11" y="85" width="18" height="18" as="geometry" />
        </mxCell>
        <mxCell id="R3GazH2n3Gu1cFq4PYQI-14" value="" style="rounded=0;whiteSpace=wrap;html=1;strokeWidth=3;rotation=-15;" vertex="1" parent="R3GazH2n3Gu1cFq4PYQI-12">
          <mxGeometry x="38" y="42" width="20" height="33" as="geometry" />
        </mxCell>
        <mxCell id="R3GazH2n3Gu1cFq4PYQI-15" value="" style="endArrow=none;html=1;rounded=0;" edge="1" parent="1">
          <mxGeometry width="50" height="50" relative="1" as="geometry">
            <mxPoint x="520" y="240" as="sourcePoint" />
            <mxPoint x="520" y="130" as="targetPoint" />
          </mxGeometry>
        </mxCell>
      </root>
    </mxGraphModel>
  </diagram>
</mxfile>
